<svg xmlns="http://www.w3.org/2000/svg" viewBox="0 0 128 128">
  <defs>
    <linearGradient id="bg" x1="0" y1="0" x2="1" y2="1">
      <stop offset="0" stop-color="#111722"/>
      <stop offset="1" stop-color="#05070b"/>
    </linearGradient>
    <linearGradient id="gold" x1="0" y1="0" x2="1" y2="1">
      <stop offset="0" stop-color="#fff1a8"/>
      <stop offset=".52" stop-color="#d5aa42"/>
      <stop offset="1" stop-color="#8f6a20"/>
    </linearGradient>
    <linearGradient id="silver" x1="0" y1="0" x2="1" y2="1">
      <stop offset="0" stop-color="#fff"/>
      <stop offset=".58" stop-color="#c5ccd3"/>
      <stop offset="1" stop-color="#7f8790"/>
    </linearGradient>
  </defs>
  <rect x="8" y="8" width="112" height="112" rx="24" fill="url(#bg)"/>
  <rect x="10" y="10" width="108" height="108" rx="22" fill="none" stroke="#d5aa42" stroke-opacity=".42" stroke-width="2"/>
  <path d="M31 69c10-16 31-23 55-18 14 3 24 11 30 22-28 7-58 7-89 2-4-1-3-4 4-6Z" fill="#111722" stroke="url(#silver)" stroke-width="4"/>
  <path d="M41 58c11-15 29-21 49-18 13 2 23 8 31 19" fill="none" stroke="url(#silver)" stroke-width="4" stroke-linecap="round"/>
  <circle cx="49" cy="77" r="8" fill="#05070b" stroke="url(#silver)" stroke-width="3"/>
  <circle cx="95" cy="77" r="8" fill="#05070b" stroke="url(#silver)" stroke-width="3"/>
  <path d="M59 61h32" stroke="url(#gold)" stroke-width="3" stroke-linecap="round"/>
  <path d="M64 20l5 15 15 5-15 5-5 15-5-15-15-5 15-5Z" fill="url(#gold)"/>
  <path d="M28 35l3 8 8 3-8 3-3 8-3-8-8-3 8-3Z" fill="url(#silver)"/>
  <path d="M92 27l30 12" stroke="url(#gold)" stroke-width="4" stroke-linecap="round"/>
</svg>
